# xmcd
#
# Track frame offsets:
#	150
#	13587
#	30570
#	43972
#	57038
#	73128
#
# Disc length: 1170 seconds
#
# Revision: 2
# Processed by: cddbd v1.5.2PL0 Copyright (c) Steve Scherf et al.
# Submitted via: EasyCDDAExtractor 12.0.5.1
#
DISCID=4c049006
DTITLE=Taylor Swift - Beautiful Eyes [EP]
DYEAR=2008
DGENRE=Country
TTITLE0=Beautiful Eyes
TTITLE1=Should've Said No (Alternate Version)
TTITLE2=Teardrops On My Guitar (Acoustic Version)
TTITLE3=Picture To Burn (Radio Edit)
TTITLE4=I'm Only Me When I'm With You
TTITLE5=I Heart
EXTD=
EXTT0=
EXTT1=
EXTT2=
EXTT3=
EXTT4=
EXTT5=
PLAYORDER=
